HIERARCHY
ROOT joint_Root
{
  OFFSET 0 0 0
  CHANNELS 6 Xposition Yposition Zposition Zrotation Xrotation Yrotation
  JOINT Hips
  {
    OFFSET 0.847027 93.984 -452.225
    CHANNELS 6 Xposition Yposition Zposition Zrotation Xrotation Yrotation
    JOINT Spine
    {
      OFFSET 15.7357 0 0
      CHANNELS 6 Xposition Yposition Zposition Zrotation Xrotation Yrotation
      JOINT Chest
      {
        OFFSET 8.98455 -0.406207 0
        CHANNELS 6 Xposition Yposition Zposition Zrotation Xrotation Yrotation
        JOINT Neck
        {
          OFFSET 16.3773 0 0
          CHANNELS 6 Xposition Yposition Zposition Zrotation Xrotation Yrotation
          JOINT Head
          {
            OFFSET 6.45672 0 0
            CHANNELS 6 Xposition Yposition Zposition Zrotation Xrotation Yrotation
            End Site
            {
              OFFSET 0 0 0
            }
          }
        }
        JOINT Shoulder_L
        {
          OFFSET 12.9942 -0.242716 4.98039
          CHANNELS 6 Xposition Yposition Zposition Zrotation Xrotation Yrotation
          JOINT UpperArm_L
          {
            OFFSET 5.34809 0 0
            CHANNELS 6 Xposition Yposition Zposition Zrotation Xrotation Yrotation
            JOINT LowerArm_L
            {
              OFFSET 24.3286 1.87007e-05 0
              CHANNELS 6 Xposition Yposition Zposition Zrotation Xrotation Yrotation
              JOINT Hand_L
              {
                OFFSET 22.2916 0 0
                CHANNELS 6 Xposition Yposition Zposition Zrotation Xrotation Yrotation
                End Site
                {
                  OFFSET 0 0 0
                }
              }
            }
          }
        }
        JOINT Shoulder_R
        {
          OFFSET 12.9945 -0.242716 -4.98039
          CHANNELS 6 Xposition Yposition Zposition Zrotation Xrotation Yrotation
          JOINT UpperArm_R
          {
            OFFSET -5.34813 0 0
            CHANNELS 6 Xposition Yposition Zposition Zrotation Xrotation Yrotation
            JOINT LowerArm_R
            {
              OFFSET -24.3289 0.000322201 0
              CHANNELS 6 Xposition Yposition Zposition Zrotation Xrotation Yrotation
              JOINT Hand_R
              {
                OFFSET -22.2915 -0.000108084 0
                CHANNELS 6 Xposition Yposition Zposition Zrotation Xrotation Yrotation
                End Site
                {
                  OFFSET 0 0 0
                }
              }
            }
          }
        }
      }
    }
    JOINT UpperLeg_L
    {
      OFFSET -2.19248 -6.46944 0
      CHANNELS 6 Xposition Yposition Zposition Zrotation Xrotation Yrotation
      JOINT LowerLeg_L
      {
        OFFSET 39.0811 0 -1.23785e-05
        CHANNELS 6 Xposition Yposition Zposition Zrotation Xrotation Yrotation
        JOINT Foot_L
        {
          OFFSET 40.9854 0 -1.26872e-05
          CHANNELS 6 Xposition Yposition Zposition Zrotation Xrotation Yrotation
          JOINT Toes_L
          {
            OFFSET 11.7543 0 0
            CHANNELS 6 Xposition Yposition Zposition Zrotation Xrotation Yrotation
            End Site
            {
              OFFSET 0 0 0
            }
          }
        }
      }
    }
    JOINT UpperLeg_R
    {
      OFFSET -2.19251 6.46944 0
      CHANNELS 6 Xposition Yposition Zposition Zrotation Xrotation Yrotation
      JOINT LowerLeg_R
      {
        OFFSET -39.0811 -0.00228153 -0.0401928
        CHANNELS 6 Xposition Yposition Zposition Zrotation Xrotation Yrotation
        JOINT Foot_R
        {
          OFFSET -40.9854 0 0
          CHANNELS 6 Xposition Yposition Zposition Zrotation Xrotation Yrotation
          JOINT Toes_R
          {
            OFFSET -11.7543 0 0
            CHANNELS 6 Xposition Yposition Zposition Zrotation Xrotation Yrotation
            End Site
            {
              OFFSET 0 0 0
            }
          }
        }
      }
    }
  }
}
MOTION
Frames:	5
Frame Time:	0.0333333
0 0 0 0 0 -0 211.454 93.0246 -58.7334 98.2718 -50.252 4.37311 15.7357 5.1072e-06 -5.51765e-07 115.921 83.7975 -116.291 8.98455 -0.406207 -4.3199e-07 3.42182 5.43021 -0.901146 16.3773 -1.3905e-06 -6.99897e-07 -1.87168 8.55208 4.24114 6.45672 -1.25837e-06 -1.02172e-07 -8.55364 12.6141 2.43069 12.9942 -0.242716 4.98039 -90.7164 1.96271 -84.9422 5.34809 -7.22636e-06 -6.2814e-07 -64.0518 -7.74901 27.0866 24.3286 1.87007e-05 4.90208e-06 -0.280732 0.531976 0.026265 22.2916 -9.88446e-07 4.63217e-06 18.9629 5.42884 -2.00007 12.9945 -0.242716 -4.98039 88.8164 8.39505 -96.9457 -5.34813 -1.25947e-06 -3.79883e-06 -43.6296 -8.07152 -16.4001 -24.3289 0.000322201 -8.65921e-06 0.851616 0.947251 -41.9815 -22.2915 -0.000108084 -4.47941e-06 13.9654 5.32364 -0.601171 -2.19248 -6.46944 -1.22533e-07 -172.395 0.712652 -33.7289 39.0811 -6.73843e-06 -1.23785e-05 0.311835 -0.198977 57.8367 40.9854 -6.48686e-06 -1.26872e-05 -10.7982 9.81372 -53.6315 11.7543 -2.30145e-07 3.05095e-06 0.138724 -0.231193 -20.6293 -2.19251 6.46944 -1.45247e-06 173.961 27.2105 172.643 -39.0811 -0.00228153 -0.0401928 0.0295546 -0.0363816 22.3234 -40.9854 7.72618e-06 5.99936e-06 -1.79402 -13.9908 -65.4801 -11.7543 -5.6619e-06 -5.58687e-06 0.0675638 -0.0761064 -17.3224 
0 0 0 0 0 -0 209.676 93.0686 -58.5982 98.3874 -51.1105 3.77275 15.7357 5.1072e-06 -5.51764e-07 118.675 83.6748 -119.384 8.98455 -0.406207 -4.3199e-07 3.3873 6.09021 -1.59734 16.3773 -1.3905e-06 -6.99897e-07 -2.40028 8.72431 3.83543 6.45672 -1.25837e-06 -1.02172e-07 -9.53029 12.3278 1.44375 12.9942 -0.242716 4.98039 -90.5329 1.43078 -84.5726 5.34809 -7.22636e-06 -6.2814e-07 -63.9229 -7.07305 28.9848 24.3286 1.87007e-05 4.90208e-06 -0.281795 0.0902864 0.0263429 22.2916 -9.88446e-07 4.63217e-06 20.2192 5.44723 -2.58296 12.9945 -0.242716 -4.98039 88.9833 7.62334 -97.3812 -5.34813 -1.25947e-06 -3.79883e-06 -41.9361 -10.4865 -18.4933 -24.3289 0.000322201 -8.65921e-06 0.404793 0.417578 -43.9669 -22.2915 -0.000108084 -4.47941e-06 13.7469 5.32862 -0.745649 -2.19248 -6.46944 -1.22533e-07 -174.558 0.491843 -35.0304 39.0811 -6.73843e-06 -1.23785e-05 0.211261 -0.161277 53.1531 40.9854 -6.48686e-06 -1.26872e-05 -11.1644 10.2073 -54.9941 11.7543 -2.30145e-07 3.05095e-06 0.142774 -0.238559 -20.7556 -2.19251 6.46944 -1.45247e-06 174.571 26.6468 174.028 -39.0811 -0.00228153 -0.0401928 0.018273 -0.0109416 20.0863 -40.9854 7.72618e-06 5.99936e-06 -1.63918 -13.8938 -65.6388 -11.7543 -5.6619e-06 -5.58687e-06 0.0706181 -0.0795971 -17.3565 
0 0 0 0 0 -0 207.819 92.9644 -58.436 98.0863 -51.6616 2.77494 15.7357 5.1072e-06 -5.51765e-07 120.714 83.6181 -121.676 8.98455 -0.406207 -4.3199e-07 3.28168 6.54955 -2.11049 16.3773 -1.3905e-06 -6.99897e-07 -2.90145 8.73198 3.63709 6.45672 -1.25837e-06 -1.02172e-07 -10.2297 12.1579 0.279399 12.9942 -0.242716 4.98039 -90.3942 1.0593 -84.5885 5.34809 -7.22636e-06 -6.2814e-07 -64.1131 -7.00907 29.3857 24.3286 1.87007e-05 4.90208e-06 -0.35572 -0.0829695 0.0331734 22.2916 -9.88446e-07 4.63217e-06 21.4722 5.46322 -2.55273 12.9945 -0.242716 -4.98039 89.0957 7.00707 -97.6276 -5.34813 -1.25947e-06 -3.79883e-06 -40.9424 -12.4171 -19.6365 -24.3289 0.000322201 -8.65921e-06 -0.332819 -0.3277 -45.4853 -22.2915 -0.000108084 -4.47941e-06 13.9272 5.3337 -0.894085 -2.19248 -6.46944 -1.22534e-07 -176.461 0.57015 -35.6943 39.0811 -6.73843e-06 -1.23785e-05 0.117669 -0.113225 46.785 40.9854 -6.48686e-06 -1.26872e-05 -11.352 9.81942 -56.1762 11.7543 -2.30144e-07 3.05095e-06 0.138214 -0.230315 -20.6145 -2.19251 6.46944 -1.45247e-06 175.402 26.3231 175.487 -39.0811 -0.00228153 -0.0401928 0.0128422 0.00257984 17.9235 -40.9854 7.72618e-06 5.99936e-06 -1.54862 -13.8265 -66.2329 -11.7543 -5.6619e-06 -5.58687e-06 0.0855481 -0.0966994 -17.5232 
0 0 0 0 0 -0 205.816 92.6547 -58.2179 97.2679 -52.0908 1.23696 15.7357 5.1072e-06 -5.51765e-07 122.422 83.6964 -123.578 8.98455 -0.406207 -4.3199e-07 2.96416 6.80124 -2.48748 16.3773 -1.3905e-06 -6.99897e-07 -3.34536 8.71595 3.66546 6.45672 -1.25837e-06 -1.02172e-07 -10.6637 12.2347 -0.786489 12.9942 -0.242716 4.98039 -90.3162 0.858577 -84.7785 5.34809 -7.22636e-06 -6.2814e-07 -64.2124 -7.66927 28.8268 24.3286 1.87007e-05 4.90208e-06 -0.421203 0.0457894 0.0393388 22.2916 -9.88446e-07 4.63217e-06 21.8073 5.46337 -2.04858 12.9945 -0.242716 -4.98039 89.1754 6.47485 -97.7264 -5.34813 -1.25947e-06 -3.79883e-06 -41.0736 -13.5621 -19.9766 -24.3289 0.000322201 -8.65921e-06 -1.31058 -1.23822 -46.577 -22.2915 -0.000108084 -4.47941e-06 14.3088 5.33753 -1.0072 -2.19248 -6.46944 -1.22534e-07 -177.966 0.566753 -35.705 39.0811 -6.73843e-06 -1.23785e-05 0.0462981 -0.0592679 39.1696 40.9854 -6.48686e-06 -1.26872e-05 -11.5186 10.2132 -57.114 11.7543 -2.30145e-07 3.05095e-06 0.13625 -0.226727 -20.552 -2.19251 6.46944 -1.45247e-06 176.523 26.3313 176.81 -39.0811 -0.00228153 -0.0401928 0.00722271 0.01881 16.2061 -40.9854 7.72618e-06 5.99936e-06 -1.7924 -13.4846 -67.6207 -11.7543 -5.6619e-06 -5.58687e-06 0.0797399 -0.0900373 -17.4586 
0 0 0 0 0 -0 203.532 92.0587 -57.8278 95.8146 -53.0358 -0.535926 15.7357 5.1072e-06 -5.51765e-07 124.246 83.7502 -125.573 8.98455 -0.406207 -4.3199e-07 2.66857 7.08707 -2.81951 16.3773 -1.3905e-06 -6.99897e-07 -3.691 8.76832 3.63944 6.45672 -1.25837e-06 -1.02172e-07 -11.0805 12.3724 -1.10322 12.9942 -0.242716 4.98039 -90.2986 0.816594 -84.9149 5.34809 -7.22636e-06 -6.2814e-07 -64.4261 -8.28946 27.6693 24.3286 1.87007e-05 4.90208e-06 -0.411065 -0.0221299 0.0384272 22.2916 -9.88446e-07 4.63217e-06 21.2148 5.44956 -1.69204 12.9945 -0.242716 -4.98039 89.2227 6.33131 -97.9866 -5.34813 -1.25947e-06 -3.79883e-06 -42.1972 -13.9932 -19.5925 -24.3289 0.000322201 -8.65921e-06 -1.51228 -1.39684 -47.3222 -22.2915 -0.000108084 -4.47941e-06 14.4481 5.34374 -1.19037 -2.19248 -6.46944 -1.22534e-07 -178.938 -0.399612 -34.7124 39.0811 -6.73843e-06 -1.23785e-05 0.00440515 -0.0120265 31.3775 40.9854 -6.48686e-06 -1.26872e-05 -12.7063 12.3129 -57.4896 11.7543 -2.30145e-07 3.05095e-06 0.143581 -0.240051 -20.781 -2.19251 6.46944 -1.45247e-06 177.446 25.8313 178.055 -39.0811 -0.00228153 -0.0401928 -0.0534388 0.231333 15.9962 -40.9854 7.72618e-06 5.99936e-06 -4.27764 -12.5199 -69.6987 -11.7543 -5.6619e-06 -5.58687e-06 0.105927 -0.120221 -17.7521 
